<?xml version="1.0" encoding="utf-8"?>
<!-- Generator: Adobe Illustrator 17.0.0, SVG Export Plug-In . SVG Version: 6.00 Build 0)  -->
<!DOCTYPE svg PUBLIC "-//W3C//DTD SVG 1.1//EN" "http://www.w3.org/Graphics/SVG/1.1/DTD/svg11.dtd">
<svg version="1.1" id="Layer_1" xmlns="http://www.w3.org/2000/svg" xmlns:xlink="http://www.w3.org/1999/xlink" x="0px" y="0px"
	 width="58px" height="72px" viewBox="0 0 58 72" enable-background="new 0 0 58 72" xml:space="preserve">
<g>
	<g>
		<path fill="#D32929" d="M2.809,30.771l4.822,5.527l0.404,0.463l0.596-0.151l4.961-1.261l0.63,8.422l0.092,1.233l1.187-0.348
			l10.584-3.106l1.875,4.556l0.254,0.618l0.669,0.001l6.141,0.009l1.189,4.713l0.092,0.363l0.307,0.214l3.645,2.533L5.369,57.856
			L2.809,30.771 M1.521,27.774l2.946,31.171l38.604-3.648l-5.89-4.093l-1.379-5.468l-6.919-0.01l-2.217-5.389l-11.448,3.359
			l-0.718-9.61l-6.115,1.554L1.521,27.774L1.521,27.774z"/>
	</g>
	<g>
		<g>
			<path fill="#59C5C5" d="M26.445,40.409c0.26,0.663,0.432,1.37,0.501,2.11c0.421,4.458-3.018,8.441-7.667,8.88
				s-8.773-2.829-9.195-7.287c-0.32-3.388,1.59-6.502,4.567-7.994l0.566,7.579L26.445,40.409z"/>
			<path fill="#59C5C5" d="M28.097,43.816c-0.281,4.487-3.932,8.26-8.711,8.711c-5.271,0.498-9.95-3.229-10.43-8.309
				c-0.38-4.023,1.985-7.705,5.604-9.311L14.5,34.089c-4.09,1.67-6.786,5.74-6.363,10.207c0.521,5.511,5.59,9.539,11.322,8.997
				c4.668-0.441,8.336-3.777,9.256-7.977L28.097,43.816z"/>
		</g>
		<polygon fill="#59C5C5" points="18.77,43.292 7.329,68.327 12.503,66.993 15.948,69.315 19.494,46.666 21.169,72.067 
			25.961,68.159 32.1,69.821 		"/>
	</g>
	<polyline fill="none" stroke="#D32929" stroke-miterlimit="10" points="7.973,36.234 14.089,34.68 14.807,44.29 26.255,40.931 
		28.472,46.319 35.391,46.329 	"/>
</g>
<g>
	<g>
		<rect x="33.571" y="26.341" fill="#59C5C5" width="20.111" height="1.051"/>
		<rect x="11.344" y="17.932" fill="#59C5C5" width="42.339" height="1.051"/>
		<rect x="11.344" y="9.523" fill="#59C5C5" width="42.339" height="1.051"/>
	</g>
	<g>
		<g>
			<path fill="#D32929" d="M35.606,0v1l21.373,0l0.019,18.603v34.945H45.564l-4.913-4.151l-0.802-5.203l-0.118-0.769l-0.774-0.074
				l-6.221-0.597l-1.505-4.934l-0.263-0.861l-0.884,0.171l-10.499,2.032l0.165-8.399l0.023-1.191l-1.177,0.183l-5.627,0.877
				l-5.546-7.717V1h28.183V0 M35.606,0H6.423v24.238l6.093,8.478l6.234-0.972l-0.189,9.635l11.713-2.267l1.7,5.573l6.887,0.661
				l0.859,5.573l5.478,4.629h12.8V19.603L57.978,0L35.606,0L35.606,0z"/>
		</g>
	</g>
	<g>
		<path fill="#59C5C5" d="M30.041,39.151c-0.105-0.362-0.235-0.713-0.388-1.052c-1.303-2.88-4.297-4.899-7.774-4.899
			c-1.12,0-2.19,0.21-3.17,0.59l-0.149,7.59L30.041,39.151z"/>
		<path fill="#59C5C5" d="M31.847,44.266c0.298-0.932,0.458-1.922,0.458-2.948c0-5.535-4.668-10.023-10.425-10.023
			c-1.091,0-2.142,0.161-3.13,0.46l-0.016,0.82c0.986-0.33,2.045-0.51,3.146-0.51c5.295,0,9.602,4.151,9.602,9.253
			c0,0.474-0.037,0.939-0.109,1.394L31.847,44.266z"/>
	</g>
	<polyline fill="none" stroke="#D32929" stroke-miterlimit="10" points="13.001,32.1 19.236,31.128 19.047,40.763 30.76,38.496 
		32.46,44.069 39.347,44.73 	"/>
</g>
</svg>
