<?xml version="1.0" encoding="utf-8"?>
<!-- Generator: Adobe Illustrator 17.0.0, SVG Export Plug-In . SVG Version: 6.00 Build 0)  -->
<!DOCTYPE svg PUBLIC "-//W3C//DTD SVG 1.1//EN" "http://www.w3.org/Graphics/SVG/1.1/DTD/svg11.dtd">
<svg version="1.1" id="Layer_1" xmlns="http://www.w3.org/2000/svg" xmlns:xlink="http://www.w3.org/1999/xlink" x="0px" y="0px"
	 width="72px" height="72px" viewBox="0 0 72 72" enable-background="new 0 0 72 72" xml:space="preserve">
<g>
	<g>
		<path fill="#59C5C5" d="M70.301,46.079c-2.303-7.377-10.777-0.151-18.051,0.188c-11.601,0.541-14.627-7.464-19.229-7.279
			c-2.862,0.114-5.154,4.243-6.478,9.213c-0.806,3.022-1.254,6.356-1.254,9.287c0,0.181,0.011,0.36,0.026,0.539h11.854h34.821
			C72.081,54.185,71.581,50.179,70.301,46.079z"/>
		<g>
			<path fill="#5AC5C5" d="M62.458,24.339l0.001,0.015c-0.155,0.013-0.306-0.006-0.452-0.06c-3.31-1.218-6.241,0.162-9.952,1.91
				c-3.6,1.696-8.053,3.794-14.078,3.794c-0.192,0-0.385-0.002-0.58-0.007c0.259,6.988,6.002,12.575,13.054,12.575
				c7.217,0,13.067-5.85,13.067-13.067C63.518,27.667,63.14,25.922,62.458,24.339z"/>
			<g>
				<path fill="#5AC5C5" d="M41.143,16.389c-2.067-0.075-3.239,3.503-2.276,3.589c2.989,0.267,6.531-0.712,9.695-2.499
					c0.759-0.428,0.647-3.837-0.369-3.478C46.064,14.75,44.622,16.515,41.143,16.389z"/>
				<path fill="#5AC5C5" d="M63.502,18.505c-1.146-1.025-3.336-0.516-6.093,0.549c-1.717,0.739-4.403,1.994-7.375,3.752
					c-5.762,3.408-12.516,2.106-13.033,1.421c-0.994-0.259-1.586,5.196,0.055,5.255c12.58,0.45,17.996-8.287,25.127-5.661
					C63.506,24.309,64.527,19.423,63.502,18.505z"/>
				<path fill="#5AC5C5" d="M49.732,22.249c4.575-2.705,8.95-4.253,9.756-4.529c0.701-3.443-3.353-4.101-10.704,0.228
					c-5.139,3.026-9.058,2.845-10.374,2.466c-1.061-0.306-1.664,1.919-1.585,3.15C37.894,24.155,44.468,25.362,49.732,22.249z"/>
			</g>
		</g>
	</g>
	<g>
		<path fill="#59C5C5" d="M24.657,48.2c-1.426,0.473-2.886,0.876-4.287,0.942c-8.765,0.409-11.051-5.639-14.528-5.5
			C2.365,43.781,0,51.762,0,57.619c0,0.137,0.008,0.272,0.02,0.407h23.41c-0.016-0.178-0.026-0.357-0.026-0.539
			C23.403,54.556,23.851,51.223,24.657,48.2z"/>
		<g>
			<path fill="#5AC5C5" d="M28.173,32.653l0.001,0.011c-0.118,0.01-0.233-0.005-0.344-0.046c-2.522-0.928-4.755,0.123-7.583,1.455
				c-2.743,1.292-6.136,2.89-10.726,2.89c-0.146,0-0.293-0.002-0.442-0.005c0.197,5.324,4.573,9.581,9.946,9.581
				c5.498,0,9.955-4.457,9.955-9.955C28.981,35.188,28.692,33.859,28.173,32.653z"/>
			<g>
				<path fill="#5AC5C5" d="M11.933,26.596c-1.575-0.057-2.468,2.669-1.734,2.734c2.277,0.204,4.976-0.543,7.387-1.904
					c0.578-0.326,0.493-2.924-0.281-2.65C15.682,25.347,14.583,26.692,11.933,26.596z"/>
				<path fill="#5AC5C5" d="M28.968,28.208c-0.873-0.781-2.542-0.393-4.642,0.419c-1.308,0.563-3.354,1.519-5.619,2.859
					c-4.39,2.596-9.536,1.605-9.93,1.083c-0.757-0.198-1.208,3.959,0.042,4.004c9.584,0.343,13.711-6.314,19.144-4.313
					C28.971,32.63,29.749,28.907,28.968,28.208z"/>
				<path fill="#5AC5C5" d="M18.477,31.06c3.485-2.061,6.819-3.241,7.433-3.451c0.534-2.624-2.555-3.125-8.156,0.173
					c-3.915,2.305-6.901,2.168-7.904,1.879c-0.809-0.233-1.268,1.462-1.207,2.4C9.458,32.513,14.466,33.432,18.477,31.06z"/>
			</g>
		</g>
	</g>
</g>
</svg>
