<?xml version="1.0" encoding="utf-8"?>
<!-- Generator: Adobe Illustrator 17.0.0, SVG Export Plug-In . SVG Version: 6.00 Build 0)  -->
<!DOCTYPE svg PUBLIC "-//W3C//DTD SVG 1.1//EN" "http://www.w3.org/Graphics/SVG/1.1/DTD/svg11.dtd">
<svg version="1.1" id="Layer_1" xmlns="http://www.w3.org/2000/svg" xmlns:xlink="http://www.w3.org/1999/xlink" x="0px" y="0px"
	 width="72px" height="72px" viewBox="0 0 72 72" enable-background="new 0 0 72 72" xml:space="preserve">
<g>
	<g>
		<circle fill="#59C5C5" cx="19.051" cy="35.241" r="9.863"/>
		<path fill="#59C5C5" d="M24.657,46.958c-1.426,0.473-2.886,0.876-4.287,0.942c-8.765,0.409-11.051-5.639-14.528-5.5
			C2.364,42.539,0,50.52,0,56.377c0,0.137,0.008,0.272,0.02,0.407h23.41c-0.016-0.178-0.026-0.357-0.026-0.539
			C23.403,53.314,23.851,49.981,24.657,46.958z"/>
	</g>
	<g>
		<circle fill="#59C5C5" cx="50.505" cy="28.27" r="13.054"/>
		<path fill="#59C5C5" d="M70.301,44.837c-2.303-7.377-10.778-0.151-18.051,0.188c-11.601,0.541-14.627-7.464-19.23-7.279
			c-2.862,0.114-5.154,4.243-6.478,9.213c-0.806,3.022-1.254,6.355-1.254,9.287c0,0.181,0.011,0.36,0.026,0.539h11.854H71.99
			C72.082,52.943,71.581,48.937,70.301,44.837z"/>
	</g>
</g>
</svg>
