<?xml version="1.0" encoding="utf-8"?>
<!-- Generator: Adobe Illustrator 17.0.0, SVG Export Plug-In . SVG Version: 6.00 Build 0)  -->
<!DOCTYPE svg PUBLIC "-//W3C//DTD SVG 1.1//EN" "http://www.w3.org/Graphics/SVG/1.1/DTD/svg11.dtd">
<svg version="1.1" id="Layer_1" xmlns="http://www.w3.org/2000/svg" xmlns:xlink="http://www.w3.org/1999/xlink" x="0px" y="0px"
	 width="72px" height="62px" viewBox="0 0 72 62" enable-background="new 0 0 72 62" xml:space="preserve">
<g>
	<g>
		<path fill="#59C5C5" d="M0,0v7.283h2.875v-0.57C2.875,4.845,4.05,3.33,5.5,3.33c1.45,0,2.625,1.515,2.625,3.383v0.57h5.579
			l4.018,8.808h36.554l4.018-8.808H63.5v-0.57c0-1.868,1.175-3.383,2.625-3.383c1.45,0,2.625,1.515,2.625,3.383v0.57H72V0H0z"/>
		<g>
			<rect x="50.504" y="43.963" fill="#59C5C5" width="12" height="11.84"/>
			<path fill="#59C5C5" d="M68.766,9.75v1.923c0,1.868-1.175,3.383-2.625,3.383c-1.45,0-2.625-1.515-2.625-3.383V9.75h-3.604
				l-4.018,8.808H16.107L12.088,9.75h-3.99v1.923c0,1.868-1.175,3.383-2.625,3.383c-1.45,0-2.625-1.515-2.625-3.383V9.75H0V62h72
				V9.75H68.766z M23.538,57.818H7.455V41.949h16.083V57.818z M23.538,38.331H7.455V22.461h16.083V38.331z M44.042,57.818H27.958
				V41.949h16.083V57.818z M44.042,38.331H27.958V22.461h16.083V38.331z M64.545,57.818H48.462V41.949h16.083V57.818z
				 M64.545,38.331H48.462V22.461h16.083V38.331z"/>
			<rect x="9.496" y="43.963" fill="#59C5C5" width="12" height="11.84"/>
			<rect x="50.504" y="24.476" fill="#59C5C5" width="12" height="11.84"/>
			<rect x="30" y="43.963" fill="#59C5C5" width="12" height="11.84"/>
			<rect x="30" y="24.476" fill="#59C5C5" width="12" height="11.84"/>
		</g>
	</g>
</g>
</svg>
