<?xml version="1.0" encoding="utf-8"?>
<!-- Generator: Adobe Illustrator 17.0.0, SVG Export Plug-In . SVG Version: 6.00 Build 0)  -->
<!DOCTYPE svg PUBLIC "-//W3C//DTD SVG 1.1//EN" "http://www.w3.org/Graphics/SVG/1.1/DTD/svg11.dtd">
<svg version="1.1" id="Layer_1" xmlns="http://www.w3.org/2000/svg" xmlns:xlink="http://www.w3.org/1999/xlink" x="0px" y="0px"
	 width="58px" height="72px" viewBox="0 0 58 72" enable-background="new 0 0 58 72" xml:space="preserve">
<g>
	<g>
		<path fill="#59C5C5" d="M32.818,0.071v1l24.16,0L57,22.116v39.423H1V1.071h31.818V0.071 M32.818,0.071H0v62.467h58V22.116
			L57.977,0.071L32.818,0.071L32.818,0.071z"/>
	</g>
	<g>
		<g>
			<rect x="30.53" y="29.693" fill="#59C5C5" width="22.616" height="1.182"/>
			<rect x="5.534" y="20.236" fill="#59C5C5" width="47.613" height="1.182"/>
			<rect x="5.534" y="10.779" fill="#59C5C5" width="47.613" height="1.182"/>
		</g>
		<g>
			<ellipse fill="#59C5C5" cx="15.533" cy="39.904" rx="11.724" ry="11.271"/>
			<polygon fill="#59C5C5" points="15.854,39.46 0.395,66.278 6.329,65.332 9.941,68.296 16.307,43.314 15.495,71.929 
				21.273,68.061 27.971,70.572 			"/>
			<ellipse fill="none" stroke="#FFFFFF" stroke-miterlimit="10" cx="15.533" cy="39.904" rx="10.16" ry="9.768"/>
		</g>
	</g>
</g>
</svg>
