<?xml version="1.0" encoding="utf-8"?>
<!-- Generator: Adobe Illustrator 17.0.0, SVG Export Plug-In . SVG Version: 6.00 Build 0)  -->
<!DOCTYPE svg PUBLIC "-//W3C//DTD SVG 1.1//EN" "http://www.w3.org/Graphics/SVG/1.1/DTD/svg11.dtd">
<svg version="1.1" id="Layer_1" xmlns="http://www.w3.org/2000/svg" xmlns:xlink="http://www.w3.org/1999/xlink" x="0px" y="0px"
	 width="72px" height="72px" viewBox="0 0 72 72" enable-background="new 0 0 72 72" xml:space="preserve">
<g>
	<g>
		<g>
			<circle fill="#9fbe03" cx="55.887" cy="49.8" r="9.785"/>
			<path fill="#9fbe03" d="M71.992,71.174c0.069-2.88-0.306-5.882-1.266-8.955c-1.726-5.53-8.079-0.113-13.531,0.141
				c-8.696,0.405-10.964-5.595-14.414-5.457c-3.45,0.138-5.796,8.056-5.796,13.867c0,0.136,0.008,0.27,0.02,0.404H71.992z"/>
		</g>
		<g>
			<circle fill="#9fbe03" cx="18.902" cy="49.8" r="9.785"/>
			<path fill="#9fbe03" d="M35.007,71.174c0.069-2.88-0.306-5.882-1.266-8.955c-1.726-5.53-8.079-0.113-13.531,0.141
				c-8.696,0.405-10.964-5.595-14.414-5.457C2.346,57.041,0,64.959,0,70.77c0,0.136,0.008,0.27,0.02,0.404H35.007z"/>
		</g>
	</g>
	<g>
		<rect x="5.452" y="0.826" fill="none" stroke="#9fbe03" stroke-miterlimit="10" width="61.067" height="35.471"/>
		<g>
			<rect x="14.525" y="8.601" fill="#9fbe03" width="39.968" height="0.999"/>
			<rect x="14.525" y="14.721" fill="#9fbe03" width="39.968" height="0.999"/>
			<rect x="14.525" y="20.951" fill="#9fbe03" width="31.141" height="0.779"/>
		</g>
	</g>
</g>
</svg>
