<?xml version="1.0" encoding="utf-8"?>
<!-- Generator: Adobe Illustrator 17.0.0, SVG Export Plug-In . SVG Version: 6.00 Build 0)  -->
<!DOCTYPE svg PUBLIC "-//W3C//DTD SVG 1.1//EN" "http://www.w3.org/Graphics/SVG/1.1/DTD/svg11.dtd">
<svg version="1.1" id="Layer_1" xmlns="http://www.w3.org/2000/svg" xmlns:xlink="http://www.w3.org/1999/xlink" x="0px" y="0px"
	 width="30px" height="10px" viewBox="0 0 30 10" enable-background="new 0 0 30 10" xml:space="preserve">
<g>
	<path fill="#DDE3E3" d="M7.348,1.858c0.17,0.052,0.336,0.159,0.498,0.321c0.162,0.162,0.266,0.325,0.31,0.487
		c0.044,0.177-0.004,0.314-0.144,0.41C7.739,3.305,7.411,3.604,7.027,3.973C6.798,4.188,6.506,4.472,6.152,4.826L5.975,5.026
		c0.34,0.339,0.727,0.713,1.163,1.119C7.61,6.602,7.924,6.894,8.079,7.019c0.148,0.103,0.203,0.255,0.166,0.454
		C8.208,7.643,8.112,7.805,7.957,7.96C7.802,8.115,7.639,8.212,7.47,8.248c-0.2,0.037-0.355-0.015-0.465-0.155
		C6.894,7.938,6.606,7.621,6.141,7.141C5.786,6.772,5.41,6.388,5.011,5.989l-1.273,1.34L3.051,8.06
		C2.94,8.186,2.785,8.223,2.586,8.171c-0.177-0.044-0.347-0.148-0.509-0.31C1.921,7.706,1.825,7.543,1.788,7.373
		C1.744,7.182,1.796,7.041,1.943,6.953C2.18,6.761,2.534,6.443,3.007,6C3.28,5.742,3.619,5.41,4.026,5.003L1.921,3.01
		C1.774,2.892,1.718,2.733,1.755,2.534c0.037-0.17,0.137-0.336,0.299-0.498C2.209,1.88,2.372,1.784,2.542,1.748
		c0.192-0.03,0.343,0.033,0.454,0.188c0.192,0.222,0.528,0.587,1.008,1.096C4.446,3.49,4.775,3.826,4.989,4.04
		c0.214-0.214,0.509-0.524,0.886-0.93c0.384-0.428,0.727-0.808,1.03-1.141C7.008,1.836,7.156,1.799,7.348,1.858z"/>
</g>
<g>
	<path fill="#DF898B" d="M17.35,1.858c0.17,0.052,0.336,0.159,0.498,0.321c0.162,0.162,0.266,0.325,0.31,0.487
		c0.044,0.177-0.004,0.314-0.144,0.41c-0.273,0.229-0.602,0.528-0.986,0.897c-0.229,0.214-0.521,0.498-0.875,0.853l-0.177,0.199
		c0.34,0.339,0.727,0.713,1.163,1.119c0.472,0.458,0.786,0.749,0.941,0.875c0.148,0.103,0.203,0.255,0.166,0.454
		c-0.037,0.17-0.133,0.332-0.288,0.487c-0.155,0.155-0.317,0.251-0.487,0.288c-0.2,0.037-0.355-0.015-0.465-0.155
		c-0.111-0.155-0.399-0.473-0.864-0.952c-0.355-0.369-0.731-0.753-1.13-1.152l-1.273,1.34L13.053,8.06
		c-0.111,0.125-0.266,0.162-0.465,0.111c-0.177-0.044-0.347-0.148-0.509-0.31c-0.155-0.155-0.251-0.318-0.288-0.487
		c-0.044-0.192,0.007-0.332,0.155-0.421c0.236-0.192,0.59-0.509,1.063-0.952c0.273-0.258,0.613-0.591,1.019-0.997L11.923,3.01
		c-0.148-0.118-0.203-0.277-0.166-0.476c0.037-0.17,0.137-0.336,0.299-0.498c0.155-0.155,0.317-0.251,0.487-0.288
		c0.192-0.03,0.343,0.033,0.454,0.188c0.192,0.222,0.528,0.587,1.008,1.096c0.443,0.458,0.771,0.794,0.986,1.008
		c0.214-0.214,0.509-0.524,0.886-0.93c0.384-0.428,0.727-0.808,1.03-1.141C17.01,1.836,17.158,1.799,17.35,1.858z"/>
</g>
<g>
	<path fill="#EF3129" d="M27.346,1.858c0.17,0.052,0.336,0.159,0.498,0.321c0.162,0.162,0.266,0.325,0.31,0.487
		c0.044,0.177-0.004,0.314-0.144,0.41c-0.273,0.229-0.602,0.528-0.986,0.897c-0.229,0.214-0.521,0.498-0.875,0.853l-0.177,0.199
		c0.34,0.339,0.727,0.713,1.163,1.119c0.472,0.458,0.786,0.749,0.941,0.875c0.148,0.103,0.203,0.255,0.166,0.454
		c-0.037,0.17-0.133,0.332-0.288,0.487c-0.155,0.155-0.317,0.251-0.487,0.288c-0.2,0.037-0.355-0.015-0.465-0.155
		c-0.111-0.155-0.399-0.473-0.864-0.952c-0.355-0.369-0.731-0.753-1.13-1.152l-1.273,1.34L23.049,8.06
		c-0.111,0.125-0.266,0.163-0.465,0.111c-0.177-0.044-0.347-0.148-0.509-0.31c-0.155-0.155-0.251-0.318-0.288-0.487
		c-0.044-0.192,0.007-0.332,0.155-0.421c0.236-0.192,0.59-0.509,1.063-0.953c0.273-0.258,0.613-0.591,1.019-0.997L21.919,3.01
		c-0.148-0.118-0.203-0.277-0.166-0.476c0.037-0.17,0.137-0.336,0.299-0.498c0.155-0.155,0.317-0.251,0.487-0.288
		c0.192-0.03,0.343,0.033,0.454,0.188c0.192,0.222,0.528,0.587,1.008,1.096c0.443,0.458,0.771,0.794,0.986,1.008
		c0.214-0.214,0.509-0.524,0.886-0.93c0.384-0.428,0.727-0.808,1.03-1.141C27.006,1.836,27.154,1.799,27.346,1.858z"/>
</g>
</svg>
