<?xml version="1.0" encoding="utf-8"?>
<!-- Generator: Adobe Illustrator 17.0.0, SVG Export Plug-In . SVG Version: 6.00 Build 0)  -->
<!DOCTYPE svg PUBLIC "-//W3C//DTD SVG 1.1//EN" "http://www.w3.org/Graphics/SVG/1.1/DTD/svg11.dtd">
<svg version="1.1" id="Layer_1" xmlns="http://www.w3.org/2000/svg" xmlns:xlink="http://www.w3.org/1999/xlink" x="0px" y="0px"
	 width="72px" height="72px" viewBox="0 0 72 72" enable-background="new 0 0 72 72" xml:space="preserve">
<g>
	<path fill="#aaa" d="M31.146,2.225c1.348-0.719,3.011-1.079,4.989-1.079c1.976,0,3.594,0.36,4.854,1.079
		c1.348,0.809,1.888,1.934,1.618,3.371c-0.27,3.057-0.451,6.876-0.539,11.461c-0.09,2.697-0.135,6.202-0.135,10.517l0.135,2.292
		c4.133,0,8.764-0.088,13.888-0.27c5.663-0.088,9.348-0.223,11.056-0.404c1.528-0.27,2.785,0.316,3.775,1.753
		C71.596,32.204,72,33.775,72,35.663c0,1.888-0.404,3.461-1.213,4.719c-0.99,1.439-2.248,2.069-3.775,1.888
		c-1.618-0.27-5.305-0.449-11.056-0.539c-4.405-0.088-9.034-0.135-13.888-0.135l0.404,15.91l0.27,8.629
		c0.088,1.439-0.63,2.608-2.157,3.506c-1.348,0.809-3.013,1.213-4.989,1.213c-1.888,0-3.461-0.404-4.719-1.213
		c-1.439-0.897-1.978-2.067-1.618-3.506c0.27-2.606,0.493-6.695,0.674-12.27c0.088-3.236,0.135-7.325,0.135-12.27L5.124,42.27
		c-1.618,0.181-2.922-0.449-3.91-1.888C0.404,39.124,0,37.506,0,35.528c0-1.888,0.404-3.459,1.213-4.719
		c0.988-1.348,2.292-1.888,3.91-1.618c2.515,0.181,6.786,0.36,12.809,0.539c5.482,0.09,9.527,0.135,12.135,0.135
		c0-2.606-0.09-6.291-0.27-11.056c-0.27-4.942-0.495-9.348-0.674-13.213C28.942,4.159,29.616,3.034,31.146,2.225z"/>
</g>
</svg>
