<?xml version="1.0" encoding="utf-8"?>
<!-- Generator: Adobe Illustrator 17.0.0, SVG Export Plug-In . SVG Version: 6.00 Build 0)  -->
<!DOCTYPE svg PUBLIC "-//W3C//DTD SVG 1.1//EN" "http://www.w3.org/Graphics/SVG/1.1/DTD/svg11.dtd">
<svg version="1.1" id="Layer_1" xmlns="http://www.w3.org/2000/svg" xmlns:xlink="http://www.w3.org/1999/xlink" x="0px" y="0px"
	 width="72px" height="72px" viewBox="0 0 72 72" enable-background="new 0 0 72 72" xml:space="preserve">
<g>
	<path fill="#59C5C5" d="M38.969,38.362c0.845-0.241,1.67-0.19,2.476,0.151c0.893,0.408,1.469,1.067,1.727,1.975
		c0.09,0.317,0.134,0.67,0.13,1.059c-0.26,9.188,0.986,12.398,2.567,12.548c0.722-1.207,1.45-2.649,2.183-4.328l2.061-4.585
		c4.428-9.175,9.659-19.185,15.695-30.03c0.459-0.825,1.123-1.374,1.99-1.645c0.868-0.271,1.714-0.177,2.539,0.282
		c0.806,0.449,1.323,1.113,1.549,1.993c0.227,0.88,0.11,1.733-0.349,2.558c-5.961,10.71-11.138,20.6-15.532,29.668l-4.728,9.85
		c-1.197,2.15-9.264,2.757-10.512,1.742c-0.919-0.743-1.467-2.255-2.291-4.315c-1.167-2.915-1.243-3.84-1.713-6.37
		c-0.482-2.799-0.455-5.745-0.194-7.678C36.817,39.706,37.617,38.747,38.969,38.362z"/>
	<g>
		<rect x="0" y="11.92" fill="#59C5C5" width="51.519" height="5.57"/>
		<rect x="0" y="28.281" fill="#59C5C5" width="51.519" height="5.57"/>
		<rect x="0" y="44.642" fill="#59C5C5" width="30.865" height="5.57"/>
	</g>
</g>
</svg>
