<?xml version="1.0" encoding="utf-8"?>
<!-- Generator: Adobe Illustrator 17.0.0, SVG Export Plug-In . SVG Version: 6.00 Build 0)  -->
<!DOCTYPE svg PUBLIC "-//W3C//DTD SVG 1.1//EN" "http://www.w3.org/Graphics/SVG/1.1/DTD/svg11.dtd">
<svg version="1.1" id="Layer_1" xmlns="http://www.w3.org/2000/svg" xmlns:xlink="http://www.w3.org/1999/xlink" x="0px" y="0px"
	 width="72px" height="72px" viewBox="0 0 72 72" enable-background="new 0 0 72 72" xml:space="preserve">
<path fill="#59C5C5" d="M70.787,30.944c-0.99-1.437-2.248-2.022-3.775-1.753c-1.172,0.124-3.274,0.227-6.306,0.308
	c-0.608-2.316-1.535-4.503-2.728-6.513c1.948-1.808,3.344-3.015,4.184-3.615c1.208-0.952,1.652-2.287,1.335-4.004
	c-0.318-1.462-1.145-2.86-2.48-4.195s-2.732-2.161-4.195-2.48c-1.716-0.316-3.02,0.16-3.909,1.431
	c-0.668,0.826-1.886,2.177-3.647,4.047c-2.151-1.31-4.511-2.308-7.018-2.939c0.093-2.099,0.212-3.982,0.358-5.635
	c0.27-1.437-0.27-2.562-1.618-3.371c-1.26-0.719-2.878-1.079-4.854-1.079c-1.978,0-3.64,0.36-4.989,1.079
	c-1.53,0.809-2.204,1.934-2.022,3.371c0.083,1.791,0.176,3.704,0.279,5.727c-2.557,0.682-4.953,1.752-7.128,3.141
	c-1.242-1.368-2.345-2.626-3.303-3.769c-0.825-1.207-2.002-1.621-3.528-1.239c-1.399,0.383-2.798,1.272-4.195,2.67
	c-1.398,1.398-2.319,2.829-2.764,4.29c-0.51,1.653-0.191,2.926,0.953,3.813c1.267,1.155,2.629,2.39,4.059,3.682
	c-0.943,1.752-1.688,3.627-2.204,5.595c-2.648-0.104-4.708-0.209-6.17-0.314c-1.618-0.27-2.922,0.27-3.91,1.618
	C0.404,32.069,0,33.64,0,35.528c0,1.978,0.404,3.596,1.213,4.854c0.988,1.439,2.292,2.069,3.91,1.888l6.074-0.164
	c0.633,2.579,1.653,5.004,3.002,7.209c-2.17,2.011-3.853,3.535-5.048,4.569c-1.334,0.953-1.876,2.257-1.621,3.909
	c0.319,1.463,1.144,2.86,2.479,4.195c1.398,1.399,2.829,2.256,4.29,2.574c1.716,0.319,3.084-0.158,4.1-1.43l4.778-5.044
	c2.001,1.164,4.171,2.069,6.469,2.658c-0.117,2.207-0.246,4.012-0.389,5.389c-0.36,1.439,0.179,2.608,1.618,3.506
	c1.258,0.809,2.831,1.213,4.719,1.213c1.976,0,3.64-0.404,4.989-1.213c1.527-0.897,2.246-2.067,2.157-3.506l-0.17-5.45
	c2.04-0.542,3.978-1.329,5.784-2.329c1.69,1.868,3.026,3.403,3.986,4.585c0.762,1.272,1.971,1.718,3.623,1.335
	c1.461-0.318,2.86-1.144,4.195-2.479c1.397-1.397,2.288-2.86,2.67-4.386c0.445-1.714,0.126-3.049-0.954-4.004l-4.18-3.928
	c1.446-2.322,2.526-4.893,3.168-7.634c2.999,0.1,5.051,0.241,6.149,0.424c1.527,0.181,2.785-0.449,3.775-1.888
	C71.596,39.124,72,37.551,72,35.663C72,33.775,71.596,32.204,70.787,30.944z M36,48.771c-7.053,0-12.771-5.718-12.771-12.771
	c0-7.053,5.718-12.771,12.771-12.771S48.771,28.947,48.771,36C48.771,43.053,43.053,48.771,36,48.771z"/>
</svg>
