<?xml version="1.0" encoding="utf-8"?>
<!-- Generator: Adobe Illustrator 17.0.0, SVG Export Plug-In . SVG Version: 6.00 Build 0)  -->
<!DOCTYPE svg PUBLIC "-//W3C//DTD SVG 1.1//EN" "http://www.w3.org/Graphics/SVG/1.1/DTD/svg11.dtd">
<svg version="1.1" id="Layer_1" xmlns="http://www.w3.org/2000/svg" xmlns:xlink="http://www.w3.org/1999/xlink" x="0px" y="0px"
	 width="72px" height="72px" viewBox="0 0 72 72" enable-background="new 0 0 72 72" xml:space="preserve">
<g>
	<path fill="#5AC5C5" d="M71.983,69.566c0.142-5.922-0.63-12.096-2.603-18.415c-3.549-11.371-16.612-0.232-27.823,0.29
		c-17.88,0.834-22.545-11.504-29.639-11.22C4.824,40.504,0.001,56.786,0,68.735c0,0.28,0.017,0.555,0.04,0.83h71.943V69.566z"/>
	<g>
		<path fill="#5AC5C5" d="M57.05,18.242l0.002,0.022c-0.236,0.019-0.467-0.009-0.689-0.092c-5.048-1.858-9.518,0.246-15.178,2.913
			c-5.491,2.587-12.282,5.786-21.47,5.786c-0.293,0-0.587-0.003-0.884-0.01c0.394,10.658,9.154,19.178,19.909,19.178
			c11.006,0,19.928-8.922,19.928-19.928C58.666,23.317,58.089,20.657,57.05,18.242z"/>
		<g>
			<path fill="#5AC5C5" d="M24.543,6.117c-3.153-0.114-4.94,5.342-3.472,5.473c4.558,0.407,9.96-1.087,14.786-3.811
				c1.157-0.653,0.987-5.852-0.562-5.305C32.047,3.618,29.847,6.31,24.543,6.117z"/>
			<path fill="#5AC5C5" d="M58.641,9.345c-1.747-1.563-5.088-0.787-9.292,0.838c-2.619,1.128-6.714,3.041-11.248,5.722
				c-8.788,5.197-19.088,3.212-19.876,2.167c-1.516-0.395-2.419,7.925,0.083,8.014c19.185,0.686,27.446-12.638,38.321-8.633
				C58.647,18.196,60.205,10.744,58.641,9.345z"/>
			<path fill="#5AC5C5" d="M37.641,15.054c6.977-4.126,13.649-6.487,14.878-6.908c1.068-5.252-5.114-6.255-16.325,0.347
				c-7.837,4.615-13.814,4.339-15.821,3.761c-1.619-0.467-2.537,2.927-2.416,4.804C19.588,17.962,29.613,19.802,37.641,15.054z"/>
		</g>
	</g>
</g>
</svg>
