<?xml version="1.0" encoding="utf-8"?>
<!-- Generator: Adobe Illustrator 17.0.0, SVG Export Plug-In . SVG Version: 6.00 Build 0)  -->
<!DOCTYPE svg PUBLIC "-//W3C//DTD SVG 1.1//EN" "http://www.w3.org/Graphics/SVG/1.1/DTD/svg11.dtd">
<svg version="1.1" id="Layer_1" xmlns="http://www.w3.org/2000/svg" xmlns:xlink="http://www.w3.org/1999/xlink" x="0px" y="0px"
	 width="72px" height="72px" viewBox="0 0 72 72" enable-background="new 0 0 72 72" xml:space="preserve">
<path fill="#59C5C5" d="M14.158,38.359c1.212-0.345,2.397-0.273,3.552,0.217c1.281,0.586,2.107,1.53,2.479,2.833
	c0.13,0.455,0.192,0.961,0.187,1.52c-0.374,13.183,1.415,17.789,3.683,18.004c1.036-1.731,2.08-3.802,3.132-6.211l2.958-6.578
	c6.353-13.165,13.86-27.527,22.52-43.088c0.659-1.184,1.611-1.971,2.856-2.36c1.245-0.389,2.46-0.254,3.643,0.405
	c1.157,0.644,1.898,1.597,2.223,2.86s0.158,2.487-0.501,3.671c-8.553,15.367-15.981,29.557-22.285,42.569L31.82,66.334
	c-1.717,3.085-13.292,3.955-15.083,2.499c-1.319-1.066-2.105-3.235-3.288-6.191c-1.674-4.183-1.783-5.509-2.458-9.139
	c-0.691-4.016-0.653-8.243-0.279-11.017C11.07,40.288,12.218,38.911,14.158,38.359z"/>
</svg>
