<?xml version="1.0" encoding="utf-8"?>
<!-- Generator: Adobe Illustrator 17.0.0, SVG Export Plug-In . SVG Version: 6.00 Build 0)  -->
<!DOCTYPE svg PUBLIC "-//W3C//DTD SVG 1.1//EN" "http://www.w3.org/Graphics/SVG/1.1/DTD/svg11.dtd">
<svg version="1.1" id="Layer_1" xmlns="http://www.w3.org/2000/svg" xmlns:xlink="http://www.w3.org/1999/xlink" x="0px" y="0px"
	 width="72px" height="72px" viewBox="0 0 72 72" enable-background="new 0 0 72 72" xml:space="preserve">
<g>
	<path fill="#f6914b" d="M68.666,14.764l-0.034,0.051H57.171l0.034-0.051h-7.974l-0.034,0.051H37.735l0.034-0.051h-7.974
		l-0.034,0.051H18.299l0.034-0.051h-7.974l-0.034,0.051h-0.012v0.018l-6.768,10.25H0v2.439h72V16.048v-1.233v-0.051H68.666z
		 M11.519,25.084l5.966-9.035h11.462l-5.966,9.035H11.519z M30.955,25.084l5.966-9.035h11.462l-5.966,9.035H30.955z M61.853,25.084
		H50.391l5.966-9.035h11.462L61.853,25.084z"/>
	<rect y="28.807" fill="#f6914b" width="72" height="28.428"/>
</g>
</svg>
