<?xml version="1.0" encoding="utf-8"?>
<!-- Generator: Adobe Illustrator 17.0.0, SVG Export Plug-In . SVG Version: 6.00 Build 0)  -->
<!DOCTYPE svg PUBLIC "-//W3C//DTD SVG 1.1//EN" "http://www.w3.org/Graphics/SVG/1.1/DTD/svg11.dtd">
<svg version="1.1" id="Layer_1" xmlns="http://www.w3.org/2000/svg" xmlns:xlink="http://www.w3.org/1999/xlink" x="0px" y="0px"
	 width="72px" height="72px" viewBox="0 0 72 72" enable-background="new 0 0 72 72" xml:space="preserve">
<g>
	<path fill="#EF3129" d="M52.905,13.379c1.222,0.372,2.419,1.142,3.588,2.312c1.169,1.169,1.913,2.339,2.233,3.509
		c0.319,1.276-0.027,2.26-1.036,2.951c-1.967,1.648-4.334,3.8-7.096,6.458c-1.649,1.542-3.748,3.588-6.3,6.14l-1.276,1.436
		c2.445,2.444,5.236,5.131,8.373,8.054c3.401,3.296,5.66,5.396,6.777,6.299c1.063,0.744,1.46,1.834,1.196,3.269
		c-0.267,1.224-0.957,2.392-2.074,3.508c-1.116,1.116-2.286,1.808-3.508,2.074c-1.437,0.265-2.553-0.106-3.349-1.116
		c-0.797-1.116-2.871-3.403-6.219-6.857c-2.553-2.658-5.263-5.423-8.134-8.293l-9.169,9.648l-4.944,5.262
		c-0.798,0.903-1.915,1.17-3.349,0.798c-1.277-0.319-2.5-1.065-3.668-2.233c-1.116-1.116-1.808-2.287-2.073-3.509
		c-0.32-1.381,0.052-2.392,1.116-3.03c1.701-1.382,4.251-3.668,7.655-6.858c1.966-1.861,4.411-4.252,7.336-7.176l-15.15-14.353
		c-1.064-0.85-1.463-1.994-1.196-3.429c0.266-1.222,0.983-2.419,2.153-3.588c1.116-1.116,2.285-1.807,3.509-2.073
		c1.381-0.213,2.472,0.24,3.269,1.355c1.38,1.595,3.8,4.226,7.256,7.894c3.188,3.295,5.554,5.714,7.097,7.256
		c1.542-1.541,3.667-3.774,6.379-6.698c2.763-3.082,5.235-5.821,7.416-8.213C50.458,13.218,51.522,12.952,52.905,13.379z"/>
</g>
</svg>
