<?xml version="1.0" encoding="utf-8"?>
<!-- Generator: Adobe Illustrator 17.0.0, SVG Export Plug-In . SVG Version: 6.00 Build 0)  -->
<!DOCTYPE svg PUBLIC "-//W3C//DTD SVG 1.1//EN" "http://www.w3.org/Graphics/SVG/1.1/DTD/svg11.dtd">
<svg version="1.1" id="Layer_1" xmlns="http://www.w3.org/2000/svg" xmlns:xlink="http://www.w3.org/1999/xlink" x="0px" y="0px"
	 width="193px" height="30px" viewBox="0 0 193 30" enable-background="new 0 0 193 30" xml:space="preserve">
<g>
	<path fill="#FFFFFF" d="M0.502,30.024c0.287-4.058,4.997-8.267,9.152-11.98c0.865-0.773,1.715-1.532,2.509-2.275
		c0.958-0.895,1.899-1.854,2.809-2.781c3.31-3.373,6.437-6.559,10.068-6.559h132.01c1.342,0,3.029-1.122,4.983-2.42
		c2.475-1.645,5.279-3.509,7.938-3.509c0.127,0,0.253,0.004,0.379,0.013c3.905,0.273,6.958,3.339,9.676,6.611
		c1.569,1.968,2.478,3.406,3.88,6.146c1.745,3.409,3.468,5.999,4.852,8.08c2.252,3.387,3.74,5.623,3.738,8.65v0.476L0.502,30.5
		V30.024z"/>
	<path fill="#0ABBEC" d="M169.973,1c0.115,0,0.23,0.004,0.344,0.012c3.51,0.246,6.267,2.749,9.314,6.416
		c1.552,1.947,2.447,3.365,3.831,6.07c1.758,3.435,3.49,6.039,4.881,8.131c2.195,3.3,3.647,5.484,3.654,8.348L1.008,30
		c0.341-3.862,4.927-7.961,8.978-11.581c0.884-0.79,1.719-1.536,2.52-2.285c0.965-0.902,1.91-1.864,2.823-2.795
		c3.235-3.296,6.291-6.41,9.712-6.41h132.011c1.492,0,3.238-1.16,5.259-2.504C164.726,2.82,167.464,1,169.973,1 M169.973,0
		c-4.921,0-10.147,5.93-12.922,5.93c-4.923,0-129.315,0-132.011,0c-4.892,0-8.796,5.342-13.218,9.474
		c-4.749,4.438-11.457,9.465-11.82,14.621V31l192.995-0.024V30c0.003-5.167-4.145-8.167-8.645-16.958
		c-1.489-2.91-2.422-4.333-3.94-6.237c-2.92-3.515-5.991-6.508-10.026-6.79C170.249,0.005,170.111,0,169.973,0L169.973,0z"/>
</g>
</svg>
