<?xml version="1.0" encoding="utf-8"?>
<!-- Generator: Adobe Illustrator 17.0.0, SVG Export Plug-In . SVG Version: 6.00 Build 0)  -->
<!DOCTYPE svg PUBLIC "-//W3C//DTD SVG 1.1//EN" "http://www.w3.org/Graphics/SVG/1.1/DTD/svg11.dtd">
<svg version="1.1" id="Layer_1" xmlns="http://www.w3.org/2000/svg" xmlns:xlink="http://www.w3.org/1999/xlink" x="0px" y="0px"
	 width="193px" height="30px" viewBox="0 0 193 30" enable-background="new 0 0 193 30" xml:space="preserve">
<g>
	<path fill="#F2F2F2" d="M6.977,29.5c-3.888,0-6.308-1.4-6.473-3.746c-0.127-1.816,2.72-4.343,6.018-7.269
		c0.97-0.86,1.993-1.768,3.022-2.728c0.96-0.894,1.903-1.852,2.814-2.777c3.319-3.371,6.455-6.555,10.096-6.555h134.599
		c1.344,0,3.034-1.12,4.992-2.417c2.482-1.645,5.295-3.508,7.963-3.508c0.126,0,0.253,0.004,0.38,0.013
		c4.491,0.313,7.698,4.236,11.093,8.389c0.589,0.719,1.18,1.442,1.781,2.151c0.476,0.561,1.195,1.306,2.029,2.168
		c2.87,2.971,7.208,7.46,7.208,10.232c0,0.746-0.66,2.228-1.922,3.614c-0.131,0.145-0.255,0.286-0.377,0.426
		c-1.019,1.164-1.755,2.006-4.776,2.006H6.977z"/>
	<path fill="#0ABBEC" d="M170.008,1c0.115,0,0.23,0.004,0.344,0.012c4.277,0.298,7.418,4.141,10.743,8.208
		c0.59,0.721,1.182,1.446,1.785,2.157c0.486,0.572,1.211,1.322,2.05,2.191c2.644,2.736,7.07,7.316,7.07,9.887
		c0,0.543-0.556,1.918-1.792,3.278c-0.133,0.146-0.259,0.291-0.383,0.432C188.858,28.27,188.219,29,185.424,29H6.977
		c-1.347,0-5.76-0.237-5.974-3.281c-0.11-1.571,2.786-4.14,5.852-6.861c0.981-0.87,1.996-1.771,3.031-2.735
		c0.968-0.901,1.914-1.863,2.83-2.793c3.243-3.294,6.307-6.405,9.739-6.405h134.598c1.494,0,3.244-1.159,5.269-2.501
		C164.745,2.819,167.491,1,170.008,1 M170.008,0c-4.934,0-10.173,5.926-12.955,5.926c-4.935,0-131.896,0-134.598,0
		c-4.904,0-8.818,5.337-13.251,9.466c-4.761,4.435-9.383,7.768-9.198,10.397C0.197,28.511,2.999,30,6.977,30
		c2.26,0,176.983,0,178.447,0c3.622,0,4.276-1.223,5.524-2.595c1.304-1.435,2.052-3.042,2.052-3.951
		c0-3.813-7.24-10.231-9.357-12.725c-4.097-4.826-7.706-10.331-13.221-10.716C170.285,0.005,170.146,0,170.008,0L170.008,0z"/>
</g>
</svg>
